# xmcd CD database file
#
# Track frame offsets:
#	150
#	13225
#	25775
#	37690
#	50065
#	62775
#	77050
#	88915
#	100580
#	112265
#	123730
#	135570
#	148415
#	161695
#	174645
#	185730
#	197775
#	209970
#	223835
#	236655
#
# Disc length: 3330 seconds
#
# Revision: 1
# Processed by: cddbd v1.5.2PL0 Copyright (c) Steve Scherf et al.
# Submitted via: CDex 1.51
#
DISCID=3b0d0014
DTITLE=Various Artist - The Country Singer
DYEAR=2004
DGENRE=Country
TTITLE0=Jim Reeves - Bimbo
TTITLE1=Hank Williams - Your Cheatin' Heart
TTITLE2=Patsy Cline - Walkin After Midnight
TTITLE3=Johnny Cash - I Walk The Line
TTITLE4=Hank Thompson - Wild Side Of Life
TTITLE5=Lefty Frizzel - Always Late (With Your Kisses)
TTITLE6=Jean Shepard and Ferlin Husky - A Dear John Letter
TTITLE7=Hank Snow - (Now and Then, There's) A Fool Such As I
TTITLE8=Carl Smith - Hey Joe!
TTITLE9=Webb Pierce - There Stands The Glass
TTITLE10=Kitty Wells - It Wasn't God Who Made Honky Tonk Angels
TTITLE11=Marty Robbins - I Couldn't Keep From Crying
TTITLE12=Eddy Arnold - Anytime
TTITLE13=Ernest Tubb - Have You Ever Been Lonely (Have You Ever Been Blue?)
TTITLE14=Jean Shepard and Ferlin Husky - Forgive Me John
TTITLE15=Merle Travis - Nine Pound Hammer
TTITLE16=Sonny James - That's Me Without You
TTITLE17=Little Jimmie Dicken - Country Boy
TTITLE18=Faron Young - Goin' Steady
TTITLE19=Skeets McDonald - Don't Let The Stars Get In Your Eyes
EXTD=YEAR: 2004
EXTT0=
EXTT1=
EXTT2=
EXTT3=
EXTT4=
EXTT5=
EXTT6=
EXTT7=
EXTT8=
EXTT9=
EXTT10=
EXTT11=
EXTT12=
EXTT13=
EXTT14=
EXTT15=
EXTT16=
EXTT17=
EXTT18=
EXTT19=
PLAYORDER=
